<svg width="120" height="84" xmlns="http://www.w3.org/2000/svg">
  <path d="M80.491 0l-3.218 5.575h-6.437l-3.219 5.574h-6.382l-3.204-5.55-.015-.024h-6.437L48.374.023 48.361 0h-6.493L38.65 5.575h-6.437l-3.218 5.574h-6.382l-3.205-5.55-.013-.024h-6.493l-3.218 5.574H3.246L.014 16.748 0 16.771l3.232 5.599.014.024h6.438l3.19 5.527-3.204 5.551-.014.024 3.221 5.579-3.207 5.556-.014.024 3.218 5.574L9.67 55.78l-.014.025 3.218 5.573-3.19 5.528H3.246L.014 72.505 0 72.528l3.232 5.598.014.025h6.438l3.204 5.55.014.024h6.493l3.218-5.574h6.437l3.232-5.599.014-.024-3.218-5.574 3.204-5.552.014-.023-3.218-5.574 3.204-5.552.014-.024-3.218-5.574 3.204-5.551.014-.023-3.222-5.58 3.208-5.556.014-.024-3.218-5.574 3.19-5.528h6.382l3.205 5.551.013.024h6.438l3.191 5.527-3.205 5.551-.014.024 3.221 5.579-3.207 5.556-.014.024 3.219 5.574-3.205 5.551-.014.025 3.219 5.573-3.191 5.528h-6.438l-3.231 5.599-.014.023 3.232 5.598.013.025h6.438l3.205 5.55.014.024h6.491l3.219-5.574h6.437l3.232-5.599.014-.024-3.219-5.574 3.205-5.552.014-.023-3.219-5.574 3.205-5.552.014-.024-3.219-5.574 3.205-5.551.014-.023-3.221-5.58 3.207-5.556.014-.024-3.219-5.574 3.192-5.528h6.382l3.204 5.551.014.024h6.438l3.19 5.527-3.205 5.551-.013.024 3.221 5.579-3.208 5.556-.013.024 3.218 5.574-3.205 5.551-.013.025 3.218 5.573-3.205 5.551-.013.025 3.218 5.573-3.205 5.552-.013.024 3.232 5.598.014.024h6.492l3.218-5.574h6.438l3.218-5.575h6.437l3.233-5.599.013-.023-3.232-5.599-.014-.024h-6.437l-3.191-5.526 3.205-5.552.013-.024-3.218-5.574 3.205-5.551.013-.023-3.221-5.58 3.208-5.556.013-.024-3.218-5.574 3.205-5.551.013-.025-3.232-5.597-.013-.025h-6.438l-3.205-5.55-.013-.024h-6.437L86.997.023 86.984 0z" fill="#FFF" fill-rule="evenodd"/>
</svg>