<svg width="169" height="88" xmlns="http://www.w3.org/2000/svg" xmlns:xlink="http://www.w3.org/1999/xlink">
  <defs>
    <path d="M15.553.163l-.888 2.341-.082.017L12.326.163H5.614l10.02 10.411.702-.145c1.307-3.42 2.635-6.842 3.97-10.266h-4.753zM.349.163l3.087 15.432 4.377-.907L4.907.163H.35zm22.578 0l2.189 10.942 4.583-.95L27.7.163h-4.773z" id="a"/>
    <path id="c" d="M4.109.163L.319 9.439l4.877-.332 2.5-6.316 12.11-.825 3.304 5.922 5.13-.35L24.018.164H4.109z"/>
    <path id="e" d="M5.164.163L5.04 7.966.363 7.888.484.163h4.68z"/>
    <path id="g" d="M6.01.163L.643 5.105.356 8.049l21.975 2.21.41-4.224L7.56 4.508 12.28.163H6.01z"/>
    <path id="i" d="M16.594.163l.765.172-.896 4.103-9.546-2.157-1.352 6.196 16.704 3.776-.905 4.145-21.272-4.81L2.587.164h14.007z"/>
  </defs>
  <g fill="none" fill-rule="evenodd">
    <g fill="#FF6D81">
      <path d="M14.652 8.577l4.667-.966 11.255 11.76.082-.017 5.8-15.293 4.46-.924 4.774 23.867-4.583.95-3.027-15.127-.165.034a2246.005 2246.005 0 0 0-5.588 14.417l-.702.146-10.64-11.057-.207.044 3.026 15.127-4.377.907-4.775-23.868zM59.925 15.754l8.536-.581-4.694-8.45-.252.018-3.59 9.013zM61.29 1.176L65.495.89l13.457 23.498-5.13.35-3.304-5.923-12.111.825-2.5 6.317-4.878.332L61.29 1.176zM84.673 24.738L85.058.38l4.679.076-.386 24.36zM119.335 27.109l-21.975-2.21.286-2.945 16.881-15.538L99.975 4.95l.411-4.224 21.346 2.147-.286 2.945-16.882 15.538 15.182 1.527zM143.707 21.288l-9.545-2.158-1.353 6.197 16.704 3.776-.904 4.145-21.273-4.81 5.193-23.78 20.325 4.594-.904 4.146-15.76-3.563-1.133 5.192 9.546 2.158z"/>
    </g>
    <g transform="translate(16.053 16.894)">
      <mask id="b" fill="#fff">
        <use xlink:href="#a"/>
      </mask>
      <path d="M203.845 57.635c0 31.74-60.926 57.472-136.082 57.472-75.157 0-136.083-25.731-136.083-57.472S-7.394.163 67.763.163c75.156 0 136.082 25.73 136.082 57.472" fill="#EE3ABE" mask="url(#b)"/>
    </g>
    <g transform="translate(50.773 16.894)">
      <mask id="d" fill="#fff">
        <use xlink:href="#c"/>
      </mask>
      <path d="M169.125 57.635c0 31.74-60.926 57.472-136.082 57.472-75.157 0-136.083-25.731-136.083-57.472S-42.114.163 33.043.163c75.156 0 136.082 25.73 136.082 57.472" fill="#EE3ABE" mask="url(#d)"/>
    </g>
    <g transform="translate(84.373 16.894)">
      <mask id="f" fill="#fff">
        <use xlink:href="#e"/>
      </mask>
      <path d="M135.525 57.635c0 31.74-60.926 57.472-136.082 57.472-75.157 0-136.083-25.731-136.083-57.472S-75.714.163-.557.163c75.156 0 136.082 25.73 136.082 57.472" fill="#EE3ABE" mask="url(#f)"/>
    </g>
    <g transform="translate(97.067 16.894)">
      <mask id="h" fill="#fff">
        <use xlink:href="#g"/>
      </mask>
      <path d="M122.831 57.635c0 31.74-60.926 57.472-136.082 57.472-75.156 0-136.082-25.731-136.082-57.472S-88.407.163-13.251.163c75.156 0 136.082 25.73 136.082 57.472" fill="#EE3ABE" mask="url(#h)"/>
    </g>
    <g transform="translate(127.307 16.894)">
      <mask id="j" fill="#fff">
        <use xlink:href="#i"/>
      </mask>
      <path d="M92.591 57.635c0 31.74-60.926 57.472-136.082 57.472-75.156 0-136.082-25.731-136.082-57.472S-118.647.163-43.491.163c75.156 0 136.082 25.73 136.082 57.472" fill="#EE3ABE" mask="url(#j)"/>
    </g>
    <path fill="#EE3ABE" d="M1.83 31.633h3.032l1.516-2.673-1.516-2.672H1.83L.314 28.96z"/>
    <path stroke="#EE3ABE" stroke-width=".15" d="M1.83 31.633h3.032l1.516-2.673-1.516-2.672H1.83L.314 28.96z"/>
    <path fill="#EE3ABE" d="M163.44 29.826h3.033l1.516-2.673-1.516-2.672h-3.033l-1.516 2.672z"/>
    <path stroke="#EE3ABE" stroke-width=".15" d="M163.44 29.826h3.033l1.516-2.673-1.516-2.672h-3.033l-1.516 2.672z"/>
    <path d="M34.425 64.72H31v-5.55h3.358c.629 0 1.062.212 1.334.484.238.238.374.536.374.876 0 .51-.306.969-.706 1.13.647.154 1.012.723 1.012 1.403 0 .408-.136.825-.51 1.181-.272.255-.638.477-1.437.477zm.035-2.49h-2.508v1.64h2.507c.264 0 .519-.084.689-.255a.813.813 0 0 0 .23-.56.761.761 0 0 0-.221-.527.96.96 0 0 0-.697-.298zm-.205-2.21h-2.303v1.445h2.303c.23 0 .434-.051.587-.204a.793.793 0 0 0 .23-.553.675.675 0 0 0-.196-.475c-.153-.153-.357-.213-.62-.213zm7.275 1.377v.85h-2.133v1.623h3.757v.85h-4.71v-5.55h4.505v.85h-3.552v1.377h2.133zm7.989-1.59l-.578.663c-.306-.28-.995-.645-2.015-.645-.663 0-1.25.212-1.25.798 0 .604.825.63 1.666.689.995.068 2.559.17 2.559 1.717 0 1.343-1.122 1.861-2.448 1.861-1.462 0-2.414-.603-3.035-1.164l.578-.663c.451.408 1.233 1.003 2.474 1.003.825 0 1.479-.28 1.479-.91 0-.697-.637-.841-1.606-.917-1.225-.085-2.619-.188-2.619-1.53C44.724 59.39 45.94 59 46.96 59c1.173 0 2.117.459 2.559.807zm3.203 4.913h-.953v-5.55h3.06c.782 0 1.267.221 1.607.587.297.323.442.705.442 1.113 0 .476-.196.893-.51 1.199-.332.314-.799.518-1.538.518h-2.108v2.133zm2.108-4.7h-2.108v1.717h2.108c.238 0 .569-.017.841-.272a.798.798 0 0 0 .026-1.148c-.256-.272-.596-.297-.867-.297zm3.322 1.912C58.151 60.31 59.52 59 61.27 59c1.751 0 3.145 1.309 3.145 2.932 0 1.65-1.394 2.959-3.145 2.959-1.751 0-3.12-1.31-3.12-2.959zm1.002 0c0 1.157.927 2.108 2.117 2.108 1.198 0 2.142-.952 2.142-2.108 0-1.147-.944-2.082-2.142-2.082-1.19 0-2.117.935-2.117 2.082zm8.133-2.762v2.745l2.899-2.745h1.181l-2.269 2.125 2.763 3.425h-1.233l-2.219-2.788-1.122 1.046v1.742h-.952v-5.55h.953zm9.145 2.227v.85h-2.133v1.623h3.756v.85h-4.709v-5.55h4.505v.85H74.3v1.377h2.133zm9.322 3.324h-3.426V59.17h3.358c.628 0 1.062.212 1.334.484.238.238.374.536.374.876 0 .51-.306.969-.706 1.13.647.154 1.012.723 1.012 1.403 0 .408-.136.825-.51 1.181-.272.255-.638.477-1.436.477zm.033-2.491H83.28v1.64h2.507c.264 0 .519-.084.689-.255a.813.813 0 0 0 .23-.56.761.761 0 0 0-.222-.527.96.96 0 0 0-.697-.298zm-.204-2.21H83.28v1.445h2.303c.23 0 .434-.051.587-.204a.793.793 0 0 0 .23-.553.675.675 0 0 0-.196-.475c-.153-.153-.357-.213-.62-.213zm3.433 4.7l2.575-5.55h.868l2.575 5.55h-1.046l-.671-1.495h-2.643l-.664 1.495h-.994zm2.958-4.411l-.96 2.15h1.963l-.952-2.15h-.051zm5.676-1.139v2.745l2.899-2.745h1.181l-2.269 2.125 2.763 3.425h-1.233l-2.219-2.788-1.122 1.046v1.742h-.952v-5.55h.953zm9.145 2.227v.85h-2.133v1.623h3.756v.85h-4.709v-5.55h4.505v.85h-3.552v1.377h2.133zm7.989-1.59l-.579.663c-.305-.28-.994-.645-2.014-.645-.663 0-1.25.212-1.25.798 0 .604.825.63 1.666.689.995.068 2.559.17 2.559 1.717 0 1.343-1.122 1.861-2.448 1.861-1.462 0-2.414-.603-3.035-1.164l.578-.663c.451.408 1.233 1.003 2.474 1.003.825 0 1.479-.28 1.479-.91 0-.697-.638-.841-1.606-.917-1.225-.085-2.618-.188-2.618-1.53 0-1.318 1.215-1.709 2.235-1.709 1.173 0 2.117.459 2.559.807zm3.203 4.913h-.953v-5.55h.953v2.1h3.017v-2.1h.952v5.55h-.952v-2.6h-3.017v2.6zm5.897-2.788c0-1.623 1.368-2.932 3.12-2.932 1.75 0 3.145 1.309 3.145 2.932 0 1.65-1.394 2.959-3.145 2.959-1.752 0-3.12-1.31-3.12-2.959zm1.003 0c0 1.157.927 2.108 2.117 2.108 1.198 0 2.141-.952 2.141-2.108 0-1.147-.943-2.082-2.142-2.082-1.19 0-2.116.935-2.116 2.082zm8.133 2.788h-.952v-5.55h3.06c.782 0 1.267.221 1.607.587.297.323.441.705.441 1.113 0 .476-.195.893-.51 1.199-.331.314-.798.518-1.538.518h-2.108v2.133zm2.108-4.7h-2.108v1.717h2.108c.238 0 .57-.017.842-.272a.798.798 0 0 0 .025-1.148c-.255-.272-.595-.297-.867-.297zm-78.595 25.7l2.575-5.55h.867l2.576 5.55h-1.046l-.671-1.495H58.19l-.662 1.496h-.995zm2.958-4.411l-.96 2.15h1.963l-.952-2.15h-.051zm8.473-1.139h.952v3.579c0 1.368-1.054 2.142-2.465 2.142-1.402 0-2.456-.774-2.456-2.142V80.17h.952v3.579c0 .833.662 1.291 1.504 1.291.85 0 1.513-.459 1.513-1.291V80.17zm7.767.638l-.578.662c-.306-.28-.994-.645-2.014-.645-.663 0-1.25.212-1.25.799 0 .603.825.629 1.666.688.995.068 2.559.17 2.559 1.717 0 1.343-1.122 1.862-2.448 1.862-1.462 0-2.414-.604-3.034-1.165l.578-.663c.45.408 1.232 1.003 2.473 1.003.824 0 1.479-.28 1.479-.91 0-.697-.638-.841-1.607-.918-1.224-.085-2.618-.186-2.618-1.53 0-1.317 1.216-1.708 2.236-1.708 1.173 0 2.117.459 2.558.808zm1.546.212v-.85h5.313v.85h-2.177v4.7h-.951v-4.7h-2.185zm7.98 4.7h-.952v-5.55h.952v5.55zm6.475-5.55h.953v5.55h-.842l-3.205-3.85h-.008v3.85h-.952v-5.55h.841l3.205 3.85h.008v-3.85zm2.864 7.174l-.264-.561c.425-.11 1.139-.493 1.139-.969v-.068c-.068.017-.153.043-.238.043-.383 0-.672-.255-.672-.587 0-.323.29-.587.672-.587.476 0 .926.4.926.961 0 1.063-.909 1.547-1.564 1.768zm4.799-6.324v-.85h5.313v.85h-2.177v4.7h-.952v-4.7h-2.184zm10.81-.85h1.157l-2.185 2.652 2.295 2.898h-1.215l-1.7-2.227-1.769 2.228h-1.156l2.355-2.856-2.125-2.695h1.216l1.53 2.023 1.597-2.023z" fill="#EE3ABE"/>
  </g>
</svg>