<svg width="168" height="88" xmlns="http://www.w3.org/2000/svg" xmlns:xlink="http://www.w3.org/1999/xlink">
  <defs>
    <path id="a" d="M.121 28.373H25.64V.276H.121v28.097z"/>
    <path id="c" d="M6.46 5.625V.317H.33v5.308h6.13z"/>
  </defs>
  <g fill="none" fill-rule="evenodd">
    <path d="M34.414 65H30.99v-5.55h3.357c.63 0 1.063.212 1.335.484.238.238.374.535.374.876 0 .51-.306.968-.706 1.13.647.153 1.012.723 1.012 1.403 0 .407-.136.824-.51 1.181-.272.255-.637.476-1.437.476zm.035-2.49H31.94v1.64h2.508c.263 0 .518-.085.688-.255a.813.813 0 0 0 .23-.561.761.761 0 0 0-.221-.527.96.96 0 0 0-.697-.297zm-.204-2.21H31.94v1.445h2.304c.229 0 .433-.051.586-.204a.793.793 0 0 0 .23-.553.675.675 0 0 0-.196-.476c-.153-.153-.357-.212-.62-.212zm7.274 1.377v.85h-2.133v1.623h3.756V65h-4.709v-5.55h4.505v.85h-3.553v1.377h2.134zm7.989-1.59l-.579.663c-.306-.28-.994-.646-2.014-.646-.663 0-1.25.212-1.25.799 0 .604.825.629 1.666.689.995.068 2.559.17 2.559 1.717 0 1.343-1.122 1.861-2.448 1.861-1.462 0-2.414-.603-3.035-1.165l.579-.662c.45.407 1.232 1.002 2.473 1.002.824 0 1.479-.28 1.479-.909 0-.697-.638-.842-1.607-.918-1.224-.085-2.617-.187-2.617-1.53 0-1.318 1.215-1.709 2.235-1.709 1.173 0 2.117.46 2.559.808zM52.71 65h-.953v-5.55h3.06c.782 0 1.267.22 1.607.586.297.323.442.706.442 1.114 0 .476-.195.892-.51 1.198-.331.315-.799.519-1.538.519H52.71V65zm2.108-4.7H52.71v1.717h2.108c.237 0 .569-.018.841-.273a.798.798 0 0 0 .026-1.148c-.255-.271-.596-.297-.867-.297zm3.322 1.912c0-1.623 1.368-2.933 3.119-2.933 1.751 0 3.145 1.31 3.145 2.933 0 1.649-1.394 2.958-3.145 2.958-1.751 0-3.12-1.309-3.12-2.958zm1.003 0c0 1.156.926 2.108 2.116 2.108 1.199 0 2.142-.952 2.142-2.108 0-1.148-.944-2.083-2.142-2.083-1.19 0-2.116.936-2.116 2.083zm8.133-2.763v2.746l2.898-2.745h1.181l-2.269 2.124L71.85 65h-1.233l-2.219-2.788-1.121 1.045V65h-.953v-5.55h.953zm9.144 2.227v.85h-2.134v1.624h3.757V65h-4.709v-5.55h4.506v.85h-3.553v1.377h2.133zM85.743 65h-3.426v-5.55h3.358c.629 0 1.062.212 1.334.484.238.238.374.535.374.876 0 .51-.306.968-.706 1.13.646.153 1.012.723 1.012 1.403 0 .407-.136.824-.51 1.181-.272.255-.638.476-1.436.476zm.034-2.49h-2.508v1.64h2.507c.264 0 .519-.085.689-.255a.813.813 0 0 0 .23-.561.761.761 0 0 0-.221-.527.96.96 0 0 0-.698-.297zm-.204-2.21h-2.304v1.445h2.303c.23 0 .434-.051.587-.204a.793.793 0 0 0 .23-.553.675.675 0 0 0-.196-.476c-.153-.153-.357-.212-.62-.212zm3.432 4.7l2.576-5.55h.867L95.023 65h-1.045l-.672-1.496h-2.644L90 65h-.994zm2.958-4.411l-.96 2.15h1.963l-.952-2.15h-.051zm5.677-1.14v2.746l2.898-2.745h1.181l-2.269 2.124L102.213 65h-1.233l-2.219-2.788-1.121 1.045V65h-.953v-5.55h.953zm9.144 2.227v.85h-2.134v1.624h3.757V65h-4.709v-5.55h4.506v.85h-3.553v1.377h2.133zm7.988-1.589l-.578.663c-.306-.28-.994-.646-2.014-.646-.663 0-1.25.212-1.25.799 0 .604.825.629 1.666.689.995.068 2.559.17 2.559 1.717 0 1.343-1.122 1.861-2.448 1.861-1.462 0-2.414-.603-3.034-1.165l.578-.662c.45.407 1.232 1.002 2.473 1.002.825 0 1.479-.28 1.479-.909 0-.697-.638-.842-1.606-.918-1.224-.085-2.618-.187-2.618-1.53 0-1.318 1.215-1.709 2.235-1.709 1.173 0 2.117.46 2.558.808zM117.975 65h-.951v-5.55h.951v2.099h3.018v-2.1h.952V65h-.952v-2.601h-3.017V65zm5.898-2.788c0-1.623 1.368-2.933 3.12-2.933 1.75 0 3.144 1.31 3.144 2.933 0 1.649-1.393 2.958-3.144 2.958-1.751 0-3.12-1.309-3.12-2.958zm1.003 0c0 1.156.926 2.108 2.117 2.108 1.198 0 2.142-.952 2.142-2.108 0-1.148-.944-2.083-2.142-2.083-1.19 0-2.117.936-2.117 2.083zM133.009 65h-.952v-5.55h3.06c.782 0 1.267.22 1.607.586.297.323.442.706.442 1.114 0 .476-.196.892-.51 1.198-.332.315-.8.519-1.539.519h-2.108V65zm2.108-4.7h-2.108v1.717h2.108c.238 0 .57-.018.841-.273a.798.798 0 0 0 .026-1.148c-.255-.271-.595-.297-.867-.297zM56.522 86l2.575-5.55h.867L62.54 86h-1.045l-.672-1.496h-2.644L57.517 86h-.994zm2.958-4.412l-.96 2.151h1.963l-.952-2.15h-.051zm8.473-1.138h.952v3.578c0 1.368-1.054 2.142-2.465 2.142-1.403 0-2.456-.773-2.456-2.142v-3.579h.952v3.579c0 .833.662 1.292 1.504 1.292.85 0 1.513-.459 1.513-1.292v-3.579zm7.767.637l-.578.663c-.305-.28-.994-.646-2.014-.646-.663 0-1.25.213-1.25.799 0 .603.825.629 1.666.688.995.069 2.559.17 2.559 1.718 0 1.343-1.122 1.861-2.448 1.861-1.462 0-2.414-.603-3.034-1.165l.578-.662c.45.407 1.232 1.002 2.473 1.002.825 0 1.479-.28 1.479-.909 0-.697-.638-.842-1.606-.918-1.225-.085-2.618-.187-2.618-1.53 0-1.317 1.215-1.709 2.235-1.709 1.173 0 2.116.46 2.558.808zm1.546.212v-.85h5.313v.85h-2.176V86h-.953v-4.7h-2.184zM85.246 86h-.952v-5.55h.952V86zm6.476-5.55h.952V86h-.842l-3.204-3.85h-.009V86h-.952v-5.55h.841l3.205 3.85h.009v-3.85zm2.863 7.174l-.264-.561c.425-.111 1.139-.493 1.139-.97v-.068c-.068.017-.153.043-.238.043-.382 0-.671-.255-.671-.587 0-.322.288-.586.671-.586.476 0 .927.4.927.96 0 1.063-.91 1.547-1.564 1.769zm4.799-6.325v-.85h5.313v.85h-2.177V86h-.951v-4.7h-2.185zm10.81-.85h1.156l-2.184 2.653L111.461 86h-1.215l-1.7-2.227L106.776 86h-1.156l2.355-2.856-2.125-2.695h1.216l1.53 2.023 1.598-2.022zM14.371 8.056l4.666-.95 11.255 11.556.082-.016 5.8-15.028 4.46-.908 4.775 23.455-4.584.933L37.8 12.232l-.166.033c-1.876 4.726-3.752 9.452-5.587 14.169l-.702.143-10.64-10.865-.207.042 3.026 14.866-4.378.891-4.774-23.455zM59.644 15.109l8.536-.571-4.695-8.304-.252.017-3.59 8.858zM61.009.783L65.214.5 78.67 23.594l-5.131.343-3.304-5.82-12.11.81-2.5 6.208-4.878.326L61.008.783zM84.392 23.938L84.777 0l4.678.075-.385 23.939zM119.053 26.268L97.08 24.095l.286-2.894 16.881-15.27-14.552-1.438.41-4.152 21.346 2.11-.286 2.894-16.881 15.27 15.181 1.5z" fill="#FFF"/>
    <g transform="translate(126.933 3.927)">
      <mask id="b" fill="#fff">
        <use xlink:href="#a"/>
      </mask>
      <path fill="#FFF" mask="url(#b)" d="M16.492 16.62L6.947 14.5l-1.353 6.089 16.704 3.71-.904 4.074L.12 23.647 5.314.277l20.325 4.515-.904 4.074L8.976 5.365l-1.134 5.101 9.546 2.121z"/>
    </g>
    <path fill="#FFF" d="M1.548 30.713h3.033l1.516-2.626-1.516-2.626H1.548L.032 28.087z"/>
    <path d="M1.565 30.685h3l1.5-2.598-1.5-2.598h-3l-1.5 2.598 1.5 2.598zm3.032.056H1.532l-.008-.014L0 28.087l.008-.014 1.524-2.64h3.065l.008.015 1.524 2.64-.008.013-1.524 2.64zM163.159 28.937h3.032l1.516-2.626-1.516-2.626h-3.032l-1.516 2.626z" fill="#FFF"/>
    <g transform="translate(161.28 23.34)">
      <mask id="d" fill="#fff">
        <use xlink:href="#c"/>
      </mask>
      <path d="M1.895 5.569h3l1.5-2.598-1.5-2.598h-3L.395 2.97l1.5 2.598zm3.032.056H1.863l-.008-.015L.33 2.97l.009-.013L1.863.317h3.064l.009.014 1.523 2.64-.007.014-1.525 2.64z" fill="#FFF" mask="url(#d)"/>
    </g>
  </g>
</svg>