<svg width="58" height="41" xmlns="http://www.w3.org/2000/svg">
  <path d="M39.166 0l-1.565 2.713h-3.133l-1.566 2.712h-3.105l-1.56-2.7-.007-.012h-3.132L23.538.01 23.532 0h-3.16l-1.565 2.713h-3.132l-1.566 2.712h-3.106l-1.56-2.7-.006-.012H6.278L4.712 5.425H1.58L.007 8.149 0 8.161l1.573 2.724.006.012h3.133l1.552 2.69-1.559 2.7-.006.012 1.567 2.715-1.56 2.703-.007.012 1.565 2.712-1.559 2.701-.006.012 1.565 2.712-1.552 2.69H1.58L.007 35.28 0 35.292l1.573 2.724.006.012h3.133l1.56 2.7.006.012h3.16l1.565-2.712h3.133l1.572-2.725.007-.011-1.566-2.713 1.56-2.701.006-.011-1.566-2.713 1.56-2.701.006-.012-1.566-2.712 1.56-2.701.006-.011-1.568-2.716 1.561-2.703.007-.012-1.566-2.712 1.552-2.69h3.106l1.56 2.701.006.012h3.132l1.553 2.69-1.56 2.7-.006.012 1.567 2.715-1.56 2.703-.007.012 1.566 2.712-1.56 2.701-.006.012 1.566 2.712-1.553 2.69h-3.132L18.8 35.28l-.007.012 1.572 2.724.007.012h3.132l1.56 2.7.007.012h3.158l1.567-2.712h3.132l1.572-2.725.007-.011-1.566-2.713 1.56-2.701.006-.011-1.566-2.713 1.56-2.701.006-.012-1.566-2.712 1.56-2.701.006-.011-1.567-2.716 1.56-2.703.007-.012-1.566-2.712 1.553-2.69h3.106l1.559 2.701.006.012H42.3l1.552 2.69-1.56 2.7-.006.012 1.568 2.715-1.561 2.703-.007.012 1.566 2.712-1.56 2.701-.006.012 1.566 2.712-1.56 2.701-.006.012 1.566 2.712-1.56 2.702-.006.011 1.573 2.724.007.012h3.159l1.566-2.712h3.132l1.566-2.713h3.133l1.573-2.724.006-.012-1.573-2.724-.006-.012h-3.133l-1.552-2.689 1.56-2.701.005-.012-1.565-2.712 1.56-2.701.005-.011-1.567-2.716 1.561-2.703.006-.012-1.565-2.712 1.56-2.701.005-.012-1.572-2.724-.007-.012H48.59l-1.56-2.7-.006-.012h-3.132L42.332.01 42.326 0z" fill="#231F1E" fill-rule="evenodd"/>
</svg>